<svg width="88" height="26" viewBox="0 0 88 26" fill="none" xmlns="http://www.w3.org/2000/svg">
<path d="M7.28996 25.0814C5.95862 25.0814 4.75139 24.8192 3.66827 24.2949C2.60771 23.7706 1.76153 23.0052 1.1297 21.9985C0.520448 20.9709 0.21582 19.7231 0.21582 18.2551C0.21582 16.7871 0.531731 15.5288 1.16355 14.4802C1.81794 13.4316 2.68669 12.6242 3.76981 12.0579C4.8755 11.4917 6.08273 11.2086 7.3915 11.2086C8.65514 11.2086 9.72698 11.4603 10.607 11.9636C11.4871 12.4669 12.1753 13.0751 12.6717 13.7881L12.9087 11.7434H15.8195V24.7668H12.6717V22.6277C12.4009 22.9632 12.0061 23.3197 11.4871 23.6972C10.9906 24.0747 10.3814 24.3998 9.65929 24.6724C8.95977 24.945 8.17 25.0814 7.28996 25.0814ZM8.13615 22.6591C9.28697 22.6591 10.2685 22.3655 11.0809 21.7783C11.8932 21.1701 12.4235 20.3522 12.6717 19.3246V16.7451C12.4009 15.8433 11.8368 15.0988 10.9793 14.5116C10.1219 13.9244 9.14029 13.6308 8.03461 13.6308C7.17713 13.6308 6.39864 13.8196 5.69912 14.1971C4.99961 14.5745 4.43548 15.0988 4.00675 15.7699C3.60058 16.441 3.39749 17.217 3.39749 18.0978C3.39749 18.9576 3.61186 19.7336 4.04059 20.4256C4.46933 21.0967 5.04474 21.642 5.76682 22.0614C6.4889 22.4599 7.27868 22.6591 8.13615 22.6591Z" fill="white"/>
<path d="M25.3278 25.0814C23.9965 25.0814 22.8005 24.7982 21.74 24.232C20.702 23.6448 19.8783 22.8269 19.2691 21.7783C18.6824 20.7088 18.389 19.4714 18.389 18.0663C18.389 16.6403 18.705 15.4134 19.3368 14.3858C19.9686 13.3582 20.8374 12.5718 21.943 12.0265C23.0713 11.4812 24.3237 11.2086 25.7001 11.2086C26.7607 11.2086 27.7761 11.4183 28.7464 11.8377C29.7167 12.2362 30.4952 12.792 31.0819 13.505V0.387207H34.2297V24.7668H31.048V22.7535C30.3711 23.4456 29.5362 24.0118 28.5433 24.4522C27.573 24.8716 26.5012 25.0814 25.3278 25.0814ZM26.3094 22.5648C27.5279 22.5648 28.5546 22.2607 29.3895 21.6525C30.2244 21.0443 30.766 20.2264 31.0142 19.1988V16.7451C30.766 15.8224 30.2018 15.0569 29.3218 14.4487C28.4643 13.8405 27.4602 13.5364 26.3094 13.5364C25.4519 13.5364 24.6621 13.7357 23.94 14.1341C23.218 14.5116 22.6426 15.0359 22.2138 15.707C21.7851 16.3781 21.5707 17.1541 21.5707 18.0349C21.5707 18.8737 21.7851 19.6392 22.2138 20.3313C22.6426 21.0233 23.218 21.5686 23.94 21.9671C24.6621 22.3655 25.4519 22.5648 26.3094 22.5648Z" fill="white"/>
<path d="M44.4778 25.0814C42.8983 25.0814 41.5218 24.7878 40.3484 24.2006C39.1976 23.5924 38.3063 22.764 37.6745 21.7154C37.0652 20.6668 36.7606 19.4819 36.7606 18.1607C36.7606 16.8814 37.0991 15.7175 37.776 14.6689C38.4755 13.5994 39.412 12.7605 40.5854 12.1523C41.7813 11.5232 43.1014 11.2086 44.5455 11.2086C46.3959 11.2086 47.9303 11.7119 49.1488 12.7186C50.3673 13.7252 51.2022 15.1093 51.6535 16.8709L40.5515 20.4886C40.9351 21.1387 41.4767 21.6525 42.1762 22.03C42.8757 22.3865 43.6655 22.5648 44.5455 22.5648C45.1774 22.5648 45.7753 22.4599 46.3395 22.2502C46.9036 22.0405 47.4451 21.7678 47.9641 21.4323L49.4196 23.6029C48.6975 24.0433 47.8964 24.3998 47.0164 24.6724C46.1589 24.945 45.3128 25.0814 44.4778 25.0814ZM39.8746 18.0034C39.852 18.2551 39.8633 18.4963 39.9084 18.7269L48.0657 15.9272C47.7498 15.2981 47.2872 14.7423 46.6779 14.26C46.0912 13.7776 45.3015 13.5364 44.3086 13.5364C43.0224 13.5364 41.9618 13.9559 41.1269 14.7948C40.292 15.6336 39.8746 16.7032 39.8746 18.0034Z" fill="white"/>
<path d="M62.5115 11.7434L66.3024 19.8594L69.8564 11.7434H72.9703L66.5055 25.5532L62.0037 16.6193L57.9082 25.5532L51.4095 11.7434H54.5234L58.2467 19.6392L60.8868 13.9769L59.7698 11.7434H62.5115Z" fill="white"/>
<path d="M80.8243 25.0814C79.2447 25.0814 77.8683 24.7878 76.6949 24.2006C75.5441 23.5924 74.6528 22.764 74.0209 21.7154C73.4117 20.6668 73.1071 19.4819 73.1071 18.1607C73.1071 16.8814 73.4455 15.7175 74.1225 14.6689C74.822 13.5994 75.7584 12.7605 76.9318 12.1523C78.1278 11.5232 79.4478 11.2086 80.892 11.2086C82.7423 11.2086 84.2768 11.7119 85.4953 12.7186C86.7138 13.7252 87.5487 15.1093 88 16.8709L76.898 20.4886C77.2816 21.1387 77.8232 21.6525 78.5227 22.03C79.2222 22.3865 80.012 22.5648 80.892 22.5648C81.5238 22.5648 82.1218 22.4599 82.6859 22.2502C83.25 22.0405 83.7916 21.7678 84.3106 21.4323L85.766 23.6029C85.044 24.0433 84.2429 24.3998 83.3629 24.6724C82.5054 24.945 81.6592 25.0814 80.8243 25.0814ZM76.221 18.0034C76.1985 18.2551 76.2097 18.4963 76.2549 18.7269L84.4121 15.9272C84.0962 15.2981 83.6336 14.7423 83.0244 14.26C82.4377 13.7776 81.6479 13.5364 80.6551 13.5364C79.3689 13.5364 78.3083 13.9559 77.4734 14.7948C76.6385 15.6336 76.221 16.7032 76.221 18.0034Z" fill="white"/>
</svg>
