<svg width="13" height="25" viewBox="0 0 13 25" fill="none" xmlns="http://www.w3.org/2000/svg">
<path fill-rule="evenodd" clip-rule="evenodd" d="M0 24.426H3.9942C5.48603 24.426 6.89365 24.2024 8.21705 23.7551C9.54045 23.2855 10.6112 22.5476 11.4293 21.5413C12.2715 20.5349 12.6926 19.2267 12.6926 17.6166C12.6926 16.2525 12.2474 15.0785 11.3571 14.0945C10.4668 13.1106 9.29983 12.3614 7.85612 11.8471C8.96297 11.3104 9.82919 10.5724 10.4548 9.63319C11.0804 8.69396 11.3932 7.57584 11.3932 6.27881C11.3932 4.19909 10.6353 2.66725 9.11937 1.6833C7.62753 0.676986 5.58228 0.173828 2.9836 0.173828H0V3.29341H3.12797C4.54762 3.29341 5.67852 3.58412 6.52069 4.16555C7.36285 4.74697 7.78394 5.67502 7.78394 6.94968C7.78394 8.00072 7.4591 8.90641 6.80943 9.66674C6.15976 10.4047 5.1251 10.7737 3.70545 10.7737H0V13.9268H3.59718C4.48746 13.9268 5.34166 14.0498 6.15976 14.2958C7.00193 14.5194 7.69972 14.8996 8.25314 15.4363C8.80656 15.973 9.08327 16.7109 9.08327 17.6502C9.08327 18.9248 8.56594 19.8752 7.53129 20.5014C6.52069 21.1052 5.29354 21.4071 3.84982 21.4071H0V24.426Z" fill="white"/>
</svg>
